<svg width="44" height="44" viewBox="0 0 44 44" fill="none" xmlns="http://www.w3.org/2000/svg">
<g clip-path="url(#clip0_0_3)">
<path d="M22 44C34.1503 44 44 34.1503 44 22C44 9.84974 34.1503 0 22 0C9.84974 0 0 9.84974 0 22C0 34.1503 9.84974 44 22 44Z" fill="black"/>
<path d="M22 44C34.1503 44 44 34.1503 44 22C44 9.84974 34.1503 0 22 0C9.84974 0 0 9.84974 0 22C0 34.1503 9.84974 44 22 44Z" fill="#2775C9"/>
<path style="mix-blend-mode:soft-light" d="M22 44C34.1503 44 44 34.1503 44 22C44 9.84974 34.1503 0 22 0C9.84974 0 0 9.84974 0 22C0 34.1503 9.84974 44 22 44Z" fill="url(#paint0_linear_0_3)"/>
<rect width="44" height="44" fill="#2775C9"/>
<path d="M21.6333 38.8667C12.1147 38.8667 4.4 31.152 4.4 21.6333C4.4 12.1147 12.1147 4.4 21.6333 4.4C31.152 4.4 38.8667 12.1147 38.8667 21.6333C38.8667 26.2039 37.051 30.5873 33.8191 33.8191C30.5873 37.051 26.2039 38.8667 21.6333 38.8667V38.8667ZM20.6067 15.2387C19.6638 15.2854 18.7724 15.683 18.1075 16.3532C17.4427 17.0235 17.0524 17.9181 17.0133 18.8613C17.0133 20.636 18.0987 21.7947 20.4013 22.2787L22.0147 22.66C23.584 23.0267 24.2293 23.5547 24.2293 24.4493C24.2293 25.344 23.1 26.224 21.6333 26.224C21.1124 26.2718 20.5885 26.1719 20.1216 25.9359C19.6547 25.6999 19.2637 25.3372 18.9933 24.8893C18.9132 24.7194 18.7867 24.5756 18.6285 24.4744C18.4702 24.3732 18.2865 24.3187 18.0987 24.3173H17.2333C17.1668 24.3297 17.1033 24.355 17.0466 24.392C16.9899 24.4289 16.9411 24.4767 16.9029 24.5326C16.8648 24.5885 16.838 24.6513 16.8242 24.7176C16.8105 24.7839 16.8099 24.8522 16.8227 24.9187C17.0335 25.7789 17.5235 26.5451 18.2162 27.0971C18.9089 27.6491 19.765 27.9558 20.6507 27.9693V29.2013C20.6507 29.4756 20.7596 29.7386 20.9535 29.9325C21.1474 30.1264 21.4104 30.2353 21.6847 30.2353C21.9589 30.2353 22.2219 30.1264 22.4158 29.9325C22.6097 29.7386 22.7187 29.4756 22.7187 29.2013V27.9547C23.7201 27.9433 24.6775 27.5415 25.387 26.8347C26.0965 26.1279 26.5021 25.172 26.5173 24.1707C26.5173 22.308 25.4467 21.2373 22.9093 20.6947L21.4427 20.372C19.976 20.0053 19.2867 19.5213 19.2867 18.7C19.2867 17.8787 20.1667 16.9693 21.6333 16.9693C22.0952 16.9211 22.5612 17.0076 22.9751 17.2184C23.3889 17.4292 23.7328 17.7553 23.9653 18.1573C24.0596 18.3581 24.2088 18.528 24.3957 18.6474C24.5826 18.7669 24.7995 18.8308 25.0213 18.832H25.7107C25.8674 18.7937 26.0028 18.6954 26.0878 18.5582C26.1729 18.4211 26.2007 18.2561 26.1653 18.0987C25.9666 17.3044 25.5222 16.5931 24.8953 16.0664C24.2685 15.5396 23.4913 15.2243 22.6747 15.1653V14.1533C22.6747 13.8791 22.5657 13.6161 22.3718 13.4222C22.1779 13.2283 21.9149 13.1193 21.6407 13.1193C21.3664 13.1193 21.1034 13.2283 20.9095 13.4222C20.7156 13.6161 20.6067 13.8791 20.6067 14.1533V15.2387V15.2387ZM8.712 21.6333C8.71368 24.335 9.56409 26.9679 11.1431 29.1602C12.7222 31.3524 14.95 32.9931 17.512 33.8507H17.7173C17.8924 33.8507 18.0602 33.7811 18.184 33.6574C18.3078 33.5336 18.3773 33.3657 18.3773 33.1907V32.8827C18.3778 32.6096 18.2972 32.3426 18.1458 32.1155C17.9943 31.8883 17.7789 31.7112 17.5267 31.6067C15.5314 30.8013 13.8224 29.4181 12.6189 27.6345C11.4154 25.8509 10.7724 23.7483 10.7724 21.5967C10.7724 19.445 11.4154 17.3425 12.6189 15.5589C13.8224 13.7753 15.5314 12.392 17.5267 11.5867C17.7777 11.4847 17.9927 11.3103 18.1442 11.0856C18.2957 10.861 18.3769 10.5963 18.3773 10.3253V9.988C18.3783 9.88895 18.3553 9.79114 18.3104 9.70285C18.2655 9.61456 18.2 9.5384 18.1194 9.48083C18.0388 9.42326 17.9455 9.38598 17.8474 9.37214C17.7494 9.3583 17.6494 9.36831 17.556 9.40133C14.9834 10.2521 12.7443 11.8919 11.1567 14.0877C9.56907 16.2835 8.71368 18.9237 8.712 21.6333V21.6333ZM34.5547 21.6333C34.5499 18.9341 33.6981 16.3045 32.1193 14.1152C30.5404 11.9259 28.3143 10.2874 25.7547 9.43067H25.5347C25.3518 9.43067 25.1765 9.50329 25.0472 9.63257C24.918 9.76184 24.8453 9.93718 24.8453 10.12V10.34C24.8512 10.6229 24.9389 10.898 25.0976 11.1322C25.2563 11.3664 25.4794 11.5497 25.74 11.66C27.7307 12.4677 29.4351 13.851 30.6351 15.633C31.8351 17.4149 32.4762 19.5143 32.4762 21.6627C32.4762 23.811 31.8351 25.9104 30.6351 27.6924C29.4351 29.4743 27.7307 30.8576 25.74 31.6653C25.4844 31.7768 25.2659 31.9587 25.11 32.1899C24.9542 32.4211 24.8674 32.6919 24.86 32.9707V33.22C24.8613 33.3287 24.8882 33.4356 24.9387 33.5319C24.9891 33.6283 25.0617 33.7113 25.1503 33.7742C25.239 33.8372 25.3413 33.8782 25.4489 33.894C25.5565 33.9099 25.6663 33.9 25.7693 33.8653C28.331 33.0045 30.5573 31.3605 32.1338 29.1655C33.7102 26.9706 34.5571 24.3357 34.5547 21.6333V21.6333Z" fill="white"/>
</g>
<defs>
<linearGradient id="paint0_linear_0_3" x1="22" y1="0" x2="22" y2="44" gradientUnits="userSpaceOnUse">
<stop stop-color="white" stop-opacity="0.5"/>
<stop offset="1" stop-opacity="0.5"/>
</linearGradient>
<clipPath id="clip0_0_3">
<rect width="44" height="44" rx="8" fill="white"/>
</clipPath>
</defs>
</svg>
